
<global>
amp_veltrack=0
ampeg_release=0.35
</global>

<group>
group_label=PP
lpc_hicc1=42
lpc_locc1=0

<region>
hikey=a#3
hivel=127
lokey=a3
loop_end=265077
loop_mode=loop_continuous
loop_start=58823
loop_xfade=24992
lovel=1
lpc=E8MQQpAti8KHQiNCYjacwVbaWUFmCUxAAnlTvahY4b9vSk/A2gaVP1roS8CrCqRARtacwPZuWb+w99M/pm8AQIU7mjyW6g5AvoAEwNPx4zzb6ri/9EwtQCW838BmJq1A
lpc_rms=-33.96
pitch_keycenter=a#3
sample=Clarinet_vibrato_PP_A#3.opus
</region>

<region>
hikey=a#4
hivel=127
lokey=a4
loop_end=267918
loop_mode=loop_continuous
loop_start=59454
loop_xfade=25260
lovel=1
lpc=IcNmQguXFMMhUfFCy1HlwQbTQ0G/6ojB+VeVQTF/B8J557lBXONDwQq4p0Hgn/bA1KbzwIp7NMDXpnVAdtxFQTKSmMEM8CZBZtpgwNKoi0Ao9iu94AWyQElAisFDwB1B
lpc_rms=-26.93
pitch_keycenter=a#4
sample=Clarinet_vibrato_PP_A#4.opus
</region>

<region>
hikey=a#5
hivel=127
lokey=a5
loop_end=263522
loop_mode=loop_continuous
loop_start=58478
loop_xfade=24845
lovel=1
lpc=Sk+0Qs+5NcPGMB9DA3mOwvt/rEGlD01Br6b0wcMftUFSNo+/Va7zwDGliUGSdADB7Z/IwITIr0AUeFlBzegzwd3aa0BFlIc/UHyZv4Onu77KGYVB2gsbwYDdAMB3B1nA
lpc_rms=-21.23
pitch_keycenter=a#5
sample=Clarinet_vibrato_PP_A#5.opus
</region>

<region>
hikey=c4
hivel=127
lokey=b3
loop_end=265282
loop_mode=loop_continuous
loop_start=58868
loop_xfade=25011
lovel=1
lpc=9lQ0QuI0t8LlumpCC8jrweA7h0Hc8/JAI+1zwPD4Xj9Kwzu/FyhywFe+Cj2R21ZA7vylwH3DtMDb8M9AHTS9P9bX0z/Evew/JPVnwLbeXj8qtDQ+9Lg6QPo8K8FMGuNA
lpc_rms=-32.87
pitch_keycenter=c4
sample=Clarinet_vibrato_PP_C4.opus
</region>

<region>
hikey=c5
hivel=127
lokey=b4
loop_end=285203
loop_mode=loop_continuous
loop_start=63289
loop_xfade=26889
lovel=1
lpc=A8iCQqgGGcPK0e1CAhEWwguUwkEpC9LBH3unQQLLzsEfPadBKjFTwWgipkEa5QrBBfkTwZbprMA39QpB0wE3QSyINsH7z6VAYyMJwQb8KEGurLzAz+Y6QK/ABMHJhvBA
lpc_rms=-25.01
pitch_keycenter=c5
sample=Clarinet_vibrato_PP_C5.opus
</region>

<region>
hikey=c6
hivel=127
lokey=b5
loop_end=295629
loop_mode=loop_continuous
loop_start=65603
loop_xfade=27872
lovel=1
lpc=W4iQQmPX5MLU/Z9Cbqb/wYay1kEGxMjBlJKzQWfWAMGArotBFACIwaEDPEEizd1AJsvWPuIvVcDoqkRAc3lgQRV2DMGwWxJB8GANwWOHmkHeotDAHfkVQd9fJMLMcv9B
lpc_rms=-22.11
pitch_keycenter=c6
sample=Clarinet_vibrato_PP_C6.opus
</region>

<region>
hikey=d3
hivel=127
lokey=C#3
loop_end=253089
loop_mode=loop_continuous
loop_start=56163
loop_xfade=23862
lovel=1
lpc=G1AGQuoyXcLzOLlBAlkQweuX5kBxlZO9+HLzPxi7hcDZcz0/uHKMPypLrD4JZypAiTCbP8d5a8CPRQzA03DMPwCZGkCmkYI/cCMxv5HXnr93y6i+w375vo71Jr6t1hc/
lpc_rms=-40.05
pitch_keycenter=d3
sample=Clarinet_vibrato_PP_D3.opus
</region>

<region>
hikey=d4
hivel=127
lokey=c#4
loop_end=268590
loop_mode=loop_continuous
loop_start=59603
loop_xfade=25323
lovel=1
lpc=BadGQ4UJusOrnjdDICMtwjrX2kE4aVhCHu4gwlkGWUGFd+jB/4IsQI9VND/mmqZB6Nh9wb0sD8Iklh9CwAnOPytIT0GwhVvBOlU1webZq8B+y0dBRTMzQRXxtcFPEGlB
lpc_rms=-17.90
pitch_keycenter=d4
sample=Clarinet_vibrato_PP_D4.opus
</region>

<region>
hikey=d5
hivel=127
lokey=c#5
loop_end=284707
loop_mode=loop_continuous
loop_start=63179
loop_xfade=26843
lovel=1
lpc=naaPQgAkG8N3rvlCY4pVwqOa+UEM68nB+5bHQVy6vcE1lGtB0ciAwY9vm0FF+LK//3XcwGIw1cAVQN5AVmUDQT7WGsHQsalAwfvuwChpgUEc7wLBD/9FPTvOBcEtxR9B
lpc_rms=-23.87
pitch_keycenter=d5
sample=Clarinet_vibrato_PP_D5.opus
</region>

<region>
end=308094
hikey=G7
hivel=127
lokey=c#6
loop_end=306865
loop_mode=loop_continuous
loop_start=68096
loop_xfade=28932
lovel=1
lpc=LnOsQhZOEcPdoa5CnnuKwdwdMkGOVQTAwDDYPxZFbkAzmtpAJk6JwOUa1kCsGh1AxOyYwLFWPUGJnZPA75pyQUlokMHPlLdBJb86wQsmukDucBjCAd0MQoCHm0GggKPB
lpc_rms=-14.84
pitch_keycenter=D6
sample=Clarinet_vibrato_PP_D6.opus
</region>

<region>
hikey=e3
hivel=127
lokey=d#3
loop_end=262213
loop_mode=loop_continuous
loop_start=58188
loop_xfade=24722
lovel=1
lpc=8lRPQmYLxsKJgUtCLv2lwVmrlUFNyjo+gjR3QJuWqMDHKrg/Xh6Wv+kqZz5KBa1A4KWOwLdfpMC9MBFAsBOpP0BqF8AzvpU/ERYzQDjiGsB0k88/wYwjwGpCZUAjjPS/
lpc_rms=-33.10
pitch_keycenter=e3
sample=Clarinet_vibrato_PP_E3.opus
</region>

<region>
hikey=e4
hivel=127
lokey=d#4
loop_end=262899
loop_mode=loop_continuous
loop_start=58340
loop_xfade=24787
lovel=1
lpc=cGdbQm38y8LI8j5C2hMqwWC+XECCEaFBCc7/wF5vEEC/HbDAa/hdwGtiBUC7cIS/ldtqv4SxG8FliitB3nDcPxx9kUDlRqE+G225wI5++L9Pduc/fM1pQOUqM8FWXgZB
lpc_rms=-28.89
pitch_keycenter=e4
sample=Clarinet_vibrato_PP_E4.opus
</region>

<region>
hikey=e5
hivel=127
lokey=d#5
loop_end=276762
loop_mode=loop_continuous
loop_start=61416
loop_xfade=26094
lovel=1
lpc=6K3rQt4KYcOg0BJDsi8/ws9yAEIgE3LBhPa/Qe8O8sGHToRBBR+iwUi950GsalC/QsU/wSYel8BCsANBRZ5PQUZiOcEvf/xAri57wQpxtkGeqBPBzj7+QMELzcFbO85B
lpc_rms=-20.76
pitch_keycenter=e5
sample=Clarinet_vibrato_PP_E5.opus
</region>

<region>
hikey=f#3
hivel=127
lokey=f3
loop_end=287196
loop_mode=loop_continuous
loop_start=63731
loop_xfade=27077
lovel=1
lpc=xoQTQrBLhsJ7ExJCX2uDwfj+JUH7+ATAgz2pQEVRU8DMHoe+ICWEPtxwoD+/bxxAb782wCJaccDAZdI/xc+OPyJHR772Z7o+B2ryvgEgzT4povc/GJKDv51aTMAGVCJA
lpc_rms=-35.63
pitch_keycenter=f#3
sample=Clarinet_vibrato_PP_F#3.opus
</region>

<region>
hikey=f#4
hivel=127
lokey=f4
loop_end=261074
loop_mode=loop_continuous
loop_start=57935
loop_xfade=24614
lovel=1
lpc=7/6OQovY5sKX/S9CZu5ywSpAEEGYmbBB2FWNwXVZg0EC5czA5lZrwb+CZ0EycyDBJON+QEG9FMH8js4+O35OQZWVMEDri7vAcXvwv8t2pj/SyD/A1yNFQVppm8EM3DpB
lpc_rms=-26.22
pitch_keycenter=f#4
sample=Clarinet_vibrato_PP_F#4.opus
</region>

<region>
hikey=f#5
hivel=127
lokey=f5
loop_end=264007
loop_mode=loop_continuous
loop_start=58586
loop_xfade=24891
lovel=1
lpc=qqDDQjlaOMOgPv9C008bwuRAuEFAqTvBwFaJQYZGjcGlPCxBvciKwTCMo0HWCTVBA+oowYPWGcE7iylB0CEjQXC0HMFKVSdB//wywfr1U0EoNirAp6iePyEQ48AXeW1B
lpc_rms=-22.07
offset=6153
pitch_keycenter=f#5
sample=Clarinet_vibrato_PP_F#5.opus
</region>

<region>
hikey=g#3
hivel=127
lokey=g3
loop_end=273541
loop_mode=loop_continuous
loop_start=60701
loop_xfade=25790
lovel=1
lpc=bktxQm7U5MJRD4pCirIOwsjqk0HbwWE/BKyTQBzUAcCtTVJAdmevv2CvFj1DPHhA/infwKZ168D+TV9AeeU/QEK7t77Ic2hAxn/FPaMwBsBxXzw+3QVcPxNd2sCjpblA
lpc_rms=-30.87
pitch_keycenter=g#3
sample=Clarinet_vibrato_PP_G#3.opus
</region>

<region>
hikey=g#4
hivel=127
lokey=g4
loop_end=256455
loop_mode=loop_continuous
loop_start=56910
loop_xfade=24179
lovel=1
lpc=zkl9QkEY2cI1ky9CyXx3wWGj2EHVxt4/wjscwE1XA8ERZrzAGCr9vayj3kCJEo1AVBZ8wIGQCD9eqwbAigJcwAk5gkDJOqpAj26xwM7V1D+pEEdAmp4OwcoRlz/U2alA
lpc_rms=-28.34
pitch_keycenter=g#4
sample=Clarinet_vibrato_PP_G#4.opus
</region>

<region>
hikey=g#5
hivel=127
lokey=g5
loop_end=268542
loop_mode=loop_continuous
loop_start=59592
loop_xfade=25319
lovel=1
lpc=w0O/QuITK8N3RtpCOKoYwgjB8UFKOI3AGqZdwDMArsAxKuhAJq7DwA0EOUEHNrRANCT/wPSkA8FicTdBYqaTQHt+ib8eKcdA/sAuwROmLEDbXgtBOfbcv6UuGEGzRQzB
lpc_rms=-21.95
pitch_keycenter=g#5
sample=Clarinet_vibrato_PP_G#5.opus
</region>
</group>

<group>
group_label=MF
lpc_hicc1=84
lpc_locc1=43

<region>
hikey=a#3
hivel=127
lokey=a3
loop_end=267498
loop_mode=loop_continuous
loop_start=59360
loop_xfade=25220
lovel=1
lpc=IzzqQf+hmML9zIVCHeSnwTFtrkBf+d4/j/x8wY4bOUEyz0HAfWX8QJ1o/cDDTfs/mTqgwKbHtECNvk7A5+y3QNbpUsCku70/MMewwNUJHEA9ySVANPWlvkuQ679cJWA/
lpc_rms=-25.49
pitch_keycenter=a#3
sample=Clarinet_vibrato_MF_A#3.opus
</region>

<region>
hikey=a#4
hivel=127
lokey=a4
loop_end=287453
loop_mode=loop_continuous
loop_start=63789
loop_xfade=27102
lovel=1
lpc=QrrSQW6IiMJ7KodC58LlweEJkUA7zKfA0h1CQY/xp8FLksdBDZ6QwVZKX0HC7zDBmBs6vaFK1UAKN23AjyKOQJwhDcGtt+FAAKXIv0ASObt2g9o9FtFXvw8mFT+o1dk+
lpc_rms=-25.86
pitch_keycenter=a#4
sample=Clarinet_vibrato_MF_A#4.opus
</region>

<region>
hikey=a#5
hivel=127
lokey=a5
loop_end=261597
loop_mode=loop_continuous
loop_start=58051
loop_xfade=24664
lovel=1
lpc=B5F0QsIz3sKV+79CsvHuwdLjncFQ6FNCQetDwrMux0Gm709BWZ3JwUL2lkFX+q4/+h+pwHUzU0EAiRjBgp6HQN+Hk0CksXJAa7sWwMVZYsDMp8FBIInswXqe40HrPWjB
lpc_rms=-17.66
pitch_keycenter=a#5
sample=Clarinet_vibrato_MF_A#5.opus
</region>

<region>
hikey=c4
hivel=127
lokey=b3
loop_end=267666
loop_mode=loop_continuous
loop_start=59398
loop_xfade=25236
lovel=1
lpc=UnQQQp5ctsIhM6FClOwTwtR4rUH8xVo/GjygwZmx6kAOUYu+ekhzQLU2NkB06vy/IkNAwFrc6sDMqNRAenxnQHnnY8APWhZBtwtmwY/kskCM8jpAKp+owE6QSkDlR0m9
lpc_rms=-26.11
pitch_keycenter=c4
sample=Clarinet_vibrato_MF_C4.opus
</region>

<region>
hikey=c5
hivel=127
lokey=b4
loop_end=267633
loop_mode=loop_continuous
loop_start=59390
loop_xfade=25233
lovel=1
lpc=yarXQcTqnMLPPblChOtiwvYMp0FjufHATrQNQY/hisHg7cJBwPLOwZjduEHbjjHBOIeBPs/qLsDXJApAFvj7QNVfH8GSJYhAJ4o4wPTM6EC+2hPBAiqaQHXR5708c3q+
lpc_rms=-25.11
pitch_keycenter=c5
sample=Clarinet_vibrato_MF_C5.opus
</region>

<region>
hikey=c6
hivel=127
lokey=b5
loop_end=265240
loop_mode=loop_continuous
loop_start=58859
loop_xfade=25007
lovel=1
lpc=U8h2QgmAxsKSKZ9CxGYWwlVPbEHCNoFAX9zMv6AZ8Dwjl65By+HeweEp7EHxxj7B6bK/QHstPEEQaKLBRb/+QbyVosE2qGJB7rW0P8jnwT8KN7PAkqQFQqGuesLBgBhC
lpc_rms=-17.65
pitch_keycenter=c6
sample=Clarinet_vibrato_MF_C6.opus
</region>

<region>
hikey=d3
hivel=127
lokey=C#3
loop_end=273512
loop_mode=loop_continuous
loop_start=60695
loop_xfade=25787
lovel=1
lpc=jN6NQnmeKcPDBd9Cw7AUwQLzmUHWDp7BoWd6wS79EEGcFhZBv4p5P4UkqsA89ivA95Bev+LYmcCE49FAYcJ6QHaTwL90nSdAhprKwI85jz/7FnM/SVASQJCcqcDzgkRA
lpc_rms=-26.21
pitch_keycenter=d3
sample=Clarinet_vibrato_MF_D3.opus
</region>

<region>
hikey=d4
hivel=127
lokey=c#4
loop_end=267221
loop_mode=loop_continuous
loop_start=59299
loop_xfade=25194
lovel=1
lpc=+QfnQsK/gcOfCDNDzG4swgQuuEGOYKJBn8+GwqCgQ0I0ReTBpHm/QWG5IsG9+BHBo0iQQMZaTz5nVJK/5Vu2QIRRHEAw7aZAXA5zwWOVyb6HRAJBm6eHwOYz3UCSs0DA
lpc_rms=-14.19
pitch_keycenter=d4
sample=Clarinet_vibrato_MF_D4.opus
</region>

<region>
hikey=d5
hivel=127
lokey=c#5
loop_end=268896
loop_mode=loop_continuous
loop_start=59671
loop_xfade=25352
lovel=1
lpc=ZhBAQhw7/sKHWQpDpImvwqcTTEJeid7BGLAFQcSXdsGxKxFC8m4MwiUF50FZ6qXBYM5pPC/8tEDEF7HA26WcQQrGjcECdD9BzY/UwVik6UHDMuU9JPsawdk6GsF58DBB
lpc_rms=-18.82
pitch_keycenter=d5
sample=Clarinet_vibrato_MF_D5.opus
</region>

<region>
hikey=G7
hivel=127
lokey=c#6
loop_end=259061
loop_mode=loop_continuous
loop_start=57488
loop_xfade=24425
lovel=1
lpc=NX/oQl0LLcPY0atCW5R2wADqwT6TBYtBlJghwTKenkG0iBDBE6gKQVuYPEHAJgjBSVKFQWNxvsBAPn9B7AEhwU+2pkGFdv7AErSwQNbP1EFd4+jCIeTlQqjZ/L9ezrXB
lpc_rms=-14.64
pitch_keycenter=D6
sample=Clarinet_vibrato_MF_D6.opus
</region>

<region>
hikey=e3
hivel=127
lokey=d#3
loop_end=274693
loop_mode=loop_continuous
loop_start=60957
loop_xfade=25899
lovel=1
lpc=/pU/Qubq8cKj9rZC5DVkwVAmSUFB97XB60xfQDyKBsFp8rZB7R1Nwdp2DEGoSX3BuS4kQZbXG8HgPCRBzsaRQFVjGcE89dxATBcxwTwADUEhNGbAukTAPxp2wT8zbLm/
lpc_rms=-24.10
pitch_keycenter=e3
sample=Clarinet_vibrato_MF_E3.opus
</region>

<region>
hikey=e4
hivel=127
lokey=d#4
loop_end=277686
loop_mode=loop_continuous
loop_start=61621
loop_xfade=26181
lovel=1
lpc=cgI0QlL62cLEv59CHMg5wZ/UlMBsE6ZBZkELwvuOlkG92y/BO0sRQSsooD9K7yTA9MczwJm4DcBSTdVAtyFtv8SQwb8Txfc/llKVwCjdhz/9xp1ARksUPvRXCMHbg7NA
lpc_rms=-23.23
pitch_keycenter=e4
sample=Clarinet_vibrato_MF_E4.opus
</region>

<region>
hikey=e5
hivel=127
lokey=d#5
loop_end=264192
loop_mode=loop_continuous
loop_start=58627
loop_xfade=24908
lovel=1
lpc=qdaLQhfJNsNVLFBDSdYIw0u1WELiFWBBBPcgwps1EEFT/ChCFneHwnUXkkKRiznCvQX4P+DAN0Fqq9nAj+ykQdMQpMFT4lVBtiipwWO+30GcWZDBRzJvQaOLqcGzHnZB
lpc_rms=-16.88
pitch_keycenter=e5
sample=Clarinet_vibrato_MF_E5.opus
</region>

<region>
hikey=f#3
hivel=127
lokey=f3
loop_end=280188
loop_mode=loop_continuous
loop_start=62176
loop_xfade=26417
lovel=1
lpc=nykaQvOi2sK2L+JCfclPwovHnEG4WnXBl1vlQElkLcEefF1BmPGCwHM+vkD6wrXA4JQPwa9XD0F5wqi/r8SvQEkg2sDkK11AlCGSwP/FOT9duulAaR/rwAWg9z/0xMQ+
lpc_rms=-26.15
pitch_keycenter=f#3
sample=Clarinet_vibrato_MF_F#3.opus
</region>

<region>
hikey=f#4
hivel=127
lokey=f4
loop_end=266819
loop_mode=loop_continuous
loop_start=59210
loop_xfade=25156
lovel=1
lpc=NRODQnRZDMMUBqNC4Xq1wIJXVkF1Xp1ApiHkwWBJ+0DGWlvAyrXPQEhYjUDmNJjAUbJNv/n1EcBX94JA6vy2vmI5QsCk+CpAREMLwNxjET8TXOdAlwRJwNyMM8GHHxpB
lpc_rms=-19.30
pitch_keycenter=f#4
sample=Clarinet_vibrato_MF_F#4.opus
</region>

<region>
hikey=f#5
hivel=127
lokey=f5
loop_end=262104
loop_mode=loop_continuous
loop_start=58163
loop_xfade=24712
lovel=1
lpc=gtSQQk+tGcMJDhBD1XKMws0QrEHAybJAbVSKvxEKfsGz7wJCfmQHwhVpuEHLob5AlVZawQm9I0GN9VHBcX/3QazVAsI40e5B05PPwbyav0GOwQ7A78ppvhVjkMH6ErNB
lpc_rms=-19.07
pitch_keycenter=f#5
sample=Clarinet_vibrato_MF_F#5.opus
</region>

<region>
hikey=g#3
hivel=127
lokey=g3
loop_end=271759
loop_mode=loop_continuous
loop_start=60306
loop_xfade=25622
lovel=1
lpc=SeZPQsIiFsN3SiBDZEqdwiDY3UFrYezAPY2jwYLHhEFBE/VAaJoOwBpyfcCpWp7AMU50PwbrC8DhWQxBT3K6vwiRtb+TR3O/VwLTwAwF2kCPlKVATA5CwB5L/MB8h7NA
lpc_rms=-23.54
pitch_keycenter=g#3
sample=Clarinet_vibrato_MF_G#3.opus
</region>

<region>
hikey=g#4
hivel=127
lokey=g4
loop_end=270334
loop_mode=loop_continuous
loop_start=59990
loop_xfade=25488
lovel=1
lpc=mYd9QrDyDsNubN1C/K8WwoIOtEFl9PjADssIwVbrhcCat2K/jk4tQVWJ90BFLlbBVVONP6g5kz8ceeG/gerDP9i8LcCJMA9BIEC9wOh36D+B/p2/WRp9wF6DDD8AxqxA
lpc_rms=-22.67
pitch_keycenter=g#4
sample=Clarinet_vibrato_MF_G#4.opus
</region>

<region>
hikey=g#5
hivel=127
lokey=g5
loop_end=263212
loop_mode=loop_continuous
loop_start=58409
loop_xfade=24816
lovel=1
lpc=Ng00Q9ty0cO4HNBDn4lUw67RHELR4m9CDLmCwlqW8UFKgJlBkBJfwisdQkJg4FJBlBIwwsEoJULeC93BxXDHQcnjcsEW2fhB+3AuwlfZikFCiBxClq86wjRcC0KO6mHB
lpc_rms=-12.35
pitch_keycenter=g#5
sample=Clarinet_vibrato_MF_G#5.opus
</region>
</group>

<group>
group_label=FF
lpc_hicc1=127
lpc_locc1=85

<region>
hikey=a#3
hivel=127
lokey=a3
loop_end=278425
loop_mode=loop_continuous
loop_start=61785
loop_xfade=26250
lovel=1
lpc=l7CMQbRkOsI9FzJCzwt7wak3TT8RpHw/N4eFwKy+OUD2mtu/tdm7QOCUq8DMsxRAgEWKwBoRL0ASMwVAVbMQwMKd5D+K4QbAFWaLvnBPnz8rpYM+6mOTPzboPsB3AcQ/
lpc_rms=-24.27
pitch_keycenter=a#3
sample=Clarinet_vibrato_FF_A#3.opus
</region>

<region>
hikey=a#4
hivel=127
lokey=a4
loop_end=265395
loop_mode=loop_continuous
loop_start=58894
loop_xfade=25022
lovel=1
lpc=A2ndQSeKnsLAYK5CF5Yhws0fjkB3ygfAp4U5QWbZqMEyaZtB3RsVwamVK0FwPTrBhD6fv23RyUDYKiE/wqhSPoIX0cD1HlJAV7+LQLX2psDIuyRAHXpAP+71H8DkNMA/
lpc_rms=-21.50
pitch_keycenter=a#4
sample=Clarinet_vibrato_FF_A#4.opus
</region>

<region>
hikey=a#5
hivel=127
lokey=a5
loop_end=267061
loop_mode=loop_continuous
loop_start=59263
loop_xfade=25179
lovel=1
lpc=yglBQqJQtcJYn7VCjBpiwlpo0UFDNgtBoEOZwVxCDEGTcuhAkui5wKW2C0GAv7w/EJhDwWNKSEFZFUtAuOR0v7s19D7dfwhA42GiwN0C6ECIL01BKPqswQA4rUEzFTjB
lpc_rms=-13.98
pitch_keycenter=a#5
sample=Clarinet_vibrato_FF_A#5.opus
</region>

<region>
hikey=c4
hivel=127
lokey=b3
loop_end=293976
loop_mode=loop_continuous
loop_start=65236
loop_xfade=27717
lovel=1
lpc=0TvxQS1rnsJNeIxCqU/AwX2BPEGeLBPBciK9v5lR4L+k76RAXSqMP/jt8j6aa2/A+AJQwHBXAT/A5P9A2ZrbvzKSAMABzuS+L9qBwEW0SUAiYiNAQuVxv+ppt78z7yA/
lpc_rms=-22.04
pitch_keycenter=c4
sample=Clarinet_vibrato_FF_C4.opus
</region>

<region>
hikey=c5
hivel=127
lokey=b4
loop_end=312157
loop_mode=loop_continuous
loop_start=69271
loop_xfade=29431
lovel=1
lpc=oarHQXE9ksLHuLJCOIZtwnvgyUG7CQXB5KKJQGloHcEwDmhBIwY4wYEDJEGprrnA5psYwOaS5L9pddlAW/rPPy1zoMDTShnANI5nQID2h0CHeA/B8NANQQvL08AV/SxA
lpc_rms=-19.29
pitch_keycenter=c5
sample=Clarinet_vibrato_FF_C5.opus
</region>

<region>
hikey=c6
hivel=127
lokey=b5
loop_end=267500
loop_mode=loop_continuous
loop_start=59361
loop_xfade=25220
lovel=1
lpc=MjXHQb3J2sE3pLNBY8oVwezQCUGjzljAgVqjQIM4QT69fVBA7h9VP6kdez9LUm1Alea9Pwe/GT+lARxAFjpIQJ9U/L4hwaVAdZhBwFLOCkH3IOPAAFplQWzVmsGDjNJA
lpc_rms=-16.50
pitch_keycenter=c6
sample=Clarinet_vibrato_FF_C6.opus
</region>

<region>
hikey=d3
hivel=127
lokey=C#3
loop_end=274734
loop_mode=loop_continuous
loop_start=60966
loop_xfade=25902
lovel=1
lpc=3izgQXz7k8KZqolCzafawf92VUEc2oLBrSUXQQy1HsBrV6NAvPD3wPqDZkBcIgtAigMWwDCkccAyB5hArI4iPxs/L7/iSLK/RFM4v33LSUAiW+a/XbIxP5wsBsBwjL8/
lpc_rms=-21.90
pitch_keycenter=d3
sample=Clarinet_vibrato_FF_D3.opus
</region>

<region>
hikey=d4
hivel=127
lokey=c#4
loop_end=266183
loop_mode=loop_continuous
loop_start=59068
loop_xfade=25096
lovel=1
lpc=VgyKQp+6KsNOzhBD5y1UwvdEvEFb90nAJVOfwYiCwkCM7tM/kNfBQEKSvUBRcCHBfjnawJkVS8BGMUVBInGSQBLXa8BaTJQ+yVtQwUNGEkElTpi/4sxAQSTahcHxAOtA
lpc_rms=-11.06
pitch_keycenter=d4
sample=Clarinet_vibrato_FF_D4.opus
</region>

<region>
hikey=d5
hivel=127
lokey=c#5
loop_end=269766
loop_mode=loop_continuous
loop_start=59864
loop_xfade=25434
lovel=1
lpc=3BvYQRQ7msLUDcVCW22ewjqcQ0JKZ6XBBoW5QDKkTsFSnsxBii3cwZuW0UHxRIfBclv7v/eVH0Gb/vzAYvseQUK588AJYWtApYwswekBmkH522HBILkcQUoUNsEGUs5A
lpc_rms=-17.77
pitch_keycenter=d5
sample=Clarinet_vibrato_FF_D5.opus
</region>

<region>
hikey=G7
hivel=127
lokey=c#6
loop_end=309536
loop_mode=loop_continuous
loop_start=68689
loop_xfade=29184
lovel=1
lpc=WxteQqlFjMLZcq5BmVscQWq0O77xv9pA1YULwB5aC0H9GQk/kheFv6MXskDuiZRAErOsvzEOg0ARKWQ/ENwYQdzvp8DNphhBSB75wEDPnkFTJznC8NelQclpCUIRlb7B
lpc_rms=-10.91
pitch_keycenter=D6
sample=Clarinet_vibrato_FF_D6.opus
</region>

<region>
hikey=e3
hivel=127
lokey=d#3
loop_end=272059
loop_mode=loop_continuous
loop_start=60372
loop_xfade=25650
lovel=1
lpc=4/PNQZhOjsJCaY9C7b79wek/aEGwLIPBM6AdQfisLMEGy5NBqgo0wSjBh0DUBQbBhDnLQKbgLMCni8dAGtGkwKdOjT+1z6a+xZRawONuv0BYOeW/GL3vP6CousAKNFtA
lpc_rms=-19.44
pitch_keycenter=e3
sample=Clarinet_vibrato_FF_E3.opus
</region>

<region>
hikey=e4
hivel=127
lokey=d#4
loop_end=273517
loop_mode=loop_continuous
loop_start=60696
loop_xfade=25788
lovel=1
lpc=MhG/Qae8gcLNVXxCZX3AwXWCjUCJPmS+vIW3wLOIXEDGvxLAZ37rQJzPYr94BsLANpwawLM6JkDG9sxAVjR5wPqpKj+I1VK/PWNpwLvTC0DgZVFAMciZP9QNysAKhUxA
lpc_rms=-21.50
pitch_keycenter=e4
sample=Clarinet_vibrato_FF_E4.opus
</region>

<region>
hikey=e5
hivel=127
lokey=d#5
loop_end=261473
loop_mode=loop_continuous
loop_start=58023
loop_xfade=24652
lovel=1
lpc=NxaVQkknRMMKYnFDRys6wzOHu0KhPzjBIH9gwWnfUcDrFYJB/nYhweeWo0H9JOfBCgVJQdsa0T+hkRXAmb2VQTHU/8Fth+pBXJ2BwTJiM0ByYwZBXy7yQAT/AsLoxcRB
lpc_rms=-13.49
pitch_keycenter=e5
sample=Clarinet_vibrato_FF_E5.opus
</region>

<region>
hikey=f#3
hivel=127
lokey=f3
loop_end=292364
loop_mode=loop_continuous
loop_start=64878
loop_xfade=27565
lovel=1
lpc=dI2YQcEqWMIv425CmccDwv4XdkH8PzvBrAHZQM3g6sAwcCZBe72ewPEMrz8RZj/A93KqPxBy778E83lAX23nPmQCWcC1Zdm+iJaAP+McmT8cpho+b+cvvyTDKr/FBQ8/
lpc_rms=-24.04
pitch_keycenter=f#3
sample=Clarinet_vibrato_FF_F#3.opus
</region>

<region>
hikey=f#4
hivel=127
lokey=f4
loop_end=267491
loop_mode=loop_continuous
loop_start=59359
loop_xfade=25219
lovel=1
lpc=NCoWQrtywMLwRLBCkFoDwljcHUF3XZrAIFfNwDIg6EBaZHjAsSWYQJG3bz70UZbAbVJqvQKNtL88nbdAeJxXvh8vJcBvKT8+hECiwPyG1UAkNXY+j/eVQOhuWsFbu/9A
lpc_rms=-17.83
pitch_keycenter=f#4
sample=Clarinet_vibrato_FF_F#4.opus
</region>

<region>
hikey=f#5
hivel=127
lokey=f5
loop_end=278843
loop_mode=loop_continuous
loop_start=61878
loop_xfade=26290
lovel=1
lpc=MhpJQk3w8MIIZwdD/NGzwm1HQ0Kf7cnBaNrgQZLML8K55z1CXVPlwbSMlUEYH5rAg1g2wV5sgkFRM07BrgzUQXMxAMKwM/JBh8zywe4M8kHCM83B/xstQsINTsJv2uBB
lpc_rms=-14.05
offset=8593
pitch_keycenter=f#5
sample=Clarinet_vibrato_FF_F#5.opus
</region>

<region>
hikey=g#3
hivel=127
lokey=g3
loop_end=274822
loop_mode=loop_continuous
loop_start=60986
loop_xfade=25911
lovel=1
lpc=pm6wQYmLa8KYTm1C7eXewVBdDEFG5JHAQyiEP0GzPMDyib1An39aPz7bIsAtfzzAAhauvbGekD9+8KBA9qGvwCjJNz+Eel8/emQRPkHCx76AHia/K4FWQL4yqcCTeixA
lpc_rms=-22.19
pitch_keycenter=g#3
sample=Clarinet_vibrato_FF_G#3.opus
</region>

<region>
hikey=g#4
hivel=127
lokey=g4
loop_end=265770
loop_mode=loop_continuous
loop_start=58977
loop_xfade=25057
lovel=1
lpc=YxkBQuwflsJPNXdC02+ewcgfDEGR9QbBu4dPQL/+jMDVjus+DASWQIyRCz9mhzPAf0hgwO2yP0D86S8/Np4nvxI2Qz5mVA5A2FyDwPQtYUDomF2/pvXMvw4lSj/lBcs/
lpc_rms=-21.81
pitch_keycenter=g#4
sample=Clarinet_vibrato_FF_G#4.opus
</region>

<region>
hikey=g#5
hivel=127
lokey=g5
loop_end=259987
loop_mode=loop_continuous
loop_start=57694
loop_xfade=24512
lovel=1
lpc=Get1QnRrB8Mx6xNDrVKtwv5ws0FBNuNBkxUfwvsyqUGRemVBcv66wdPizkG9RoHBHRpaQEZ6MEE2aBHAcg4VQFkmQ8H5uNpBQv6dwdLVgEE/4LvAXm0uwI+THUHBp6A/
lpc_rms=-12.68
pitch_keycenter=g#5
sample=Clarinet_vibrato_FF_G#5.opus
</region>
</group>